name Walk3.mot
datacolumns 19
datarows 17
range 1.93600000 1.95200000
endheader

                time	   L_ground_force_vx	   L_ground_force_vy	   L_ground_force_vz	   L_ground_force_px	   L_ground_force_py	   L_ground_force_pz	   R_ground_force_vx	   R_ground_force_vy	   R_ground_force_vz	   R_ground_force_px	   R_ground_force_py	   R_ground_force_pz	   L_ground_torque_x	   L_ground_torque_y	   L_ground_torque_z	   R_ground_torque_x	   R_ground_torque_y	   R_ground_torque_z	
          1.93600000	          0.00000000	          0.00000000	          0.00000000	          0.00000000	          0.00000000	          0.00000000	          0.00000000	          0.00000000	          0.00000000	          0.00000000	          0.00000000	          0.00000000	          0.00000000	          0.00000000	          0.00000000	          0.00000000	          0.00000000	          0.00000000	
          1.93700000	          0.00000000	          0.00000000	          0.00000000	          0.00000000	          0.00000000	          0.00000000	          0.00000000	          0.00000000	          0.00000000	          0.00000000	          0.00000000	          0.00000000	          0.00000000	          0.00000000	          0.00000000	          0.00000000	          0.00000000	          0.00000000	
          1.93800000	          0.00000000	          0.00000000	          0.00000000	          0.00000000	          0.00000000	          0.00000000	          0.00000000	          0.00000000	          0.00000000	          0.00000000	          0.00000000	          0.00000000	          0.00000000	          0.00000000	          0.00000000	          0.00000000	          0.00000000	          0.00000000	
          1.93900000	          0.00000000	          0.00000000	          0.00000000	          0.00000000	          0.00000000	          0.00000000	          0.00000000	          0.00000000	          0.00000000	          0.00000000	          0.00000000	          0.00000000	          0.00000000	          0.00000000	          0.00000000	          0.00000000	          0.00000000	          0.00000000	
          1.94000000	          0.00000000	          0.00000000	          0.00000000	          0.00000000	          0.00000000	          0.00000000	          0.00000000	          0.00000000	          0.00000000	          0.00000000	          0.00000000	          0.00000000	          0.00000000	          0.00000000	          0.00000000	          0.00000000	          0.00000000	          0.00000000	
          1.94100000	          0.00000000	          0.00000000	          0.00000000	          0.00000000	          0.00000000	          0.00000000	        -10.18462428	         14.48632099	         -3.59431344	         -0.44507214	          0.00000000	         -0.03684158	          0.00000000	          0.00000000	          0.00000000	          0.00000000	         -0.06374174	          0.00000000	
          1.94200000	          0.00000000	          0.00000000	          0.00000000	          0.00000000	          0.00000000	          0.00000000	        -16.31852255	         24.23418304	         -5.30478839	         -0.44655540	          0.00000000	         -0.03504345	          0.00000000	          0.00000000	          0.00000000	          0.00000000	         -0.04569204	          0.00000000	
          1.94300000	          0.00000000	          0.00000000	          0.00000000	          0.00000000	          0.00000000	          0.00000000	        -23.47303650	         36.80746058	         -6.96188472	         -0.44749101	          0.00000000	         -0.03342735	          0.00000000	          0.00000000	          0.00000000	          0.00000000	         -0.00156920	          0.00000000	
          1.94400000	          0.00000000	          0.00000000	          0.00000000	          0.00000000	          0.00000000	          0.00000000	        -31.39940688	         52.99013583	         -8.36900618	         -0.44795384	          0.00000000	         -0.03215628	          0.00000000	          0.00000000	          0.00000000	          0.00000000	          0.05913855	          0.00000000	
          1.94500000	          0.00000000	          0.00000000	          0.00000000	          0.00000000	          0.00000000	          0.00000000	        -39.77410305	         73.79725258	         -9.37872626	         -0.44801361	          0.00000000	         -0.03129999	          0.00000000	          0.00000000	          0.00000000	          0.00000000	          0.12378866	          0.00000000	
          1.94600000	          0.00000000	          0.00000000	          0.00000000	          0.00000000	          0.00000000	          0.00000000	        -48.10153344	        100.02812921	         -9.88502105	         -0.44777181	          0.00000000	         -0.03075081	          0.00000000	          0.00000000	          0.00000000	          0.00000000	          0.18888263	          0.00000000	
          1.94700000	          0.00000000	          0.00000000	          0.00000000	          0.00000000	          0.00000000	          0.00000000	        -55.72830770	        131.88576569	         -9.83394714	         -0.44736183	          0.00000000	         -0.03034029	          0.00000000	          0.00000000	          0.00000000	          0.00000000	          0.25900116	          0.00000000	
          1.94800000	          0.00000000	          0.00000000	          0.00000000	          0.00000000	          0.00000000	          0.00000000	        -61.95999366	        168.73455803	         -9.25930880	         -0.44691965	          0.00000000	         -0.02996632	          0.00000000	          0.00000000	          0.00000000	          0.00000000	          0.33427507	          0.00000000	
          1.94900000	          0.00000000	          0.00000000	          0.00000000	          0.00000000	          0.00000000	          0.00000000	        -66.23660785	        209.10476121	         -8.32187494	         -0.44654199	          0.00000000	         -0.02961296	          0.00000000	          0.00000000	          0.00000000	          0.00000000	          0.40606186	          0.00000000	
          1.95000000	          0.00000000	          0.00000000	          0.00000000	          0.00000000	          0.00000000	          0.00000000	        -68.27617510	        250.97174295	         -7.31850578	         -0.44626290	          0.00000000	         -0.02928210	          0.00000000	          0.00000000	          0.00000000	          0.00000000	          0.46394049	          0.00000000	
          1.95100000	          0.00000000	          0.00000000	          0.00000000	          0.00000000	          0.00000000	          0.00000000	        -68.13010648	        292.16116616	         -6.65714747	         -0.44605963	          0.00000000	         -0.02893541	          0.00000000	          0.00000000	          0.00000000	          0.00000000	          0.50144760	          0.00000000	
          1.95200000	          0.00000000	          0.00000000	          0.00000000	          0.00000000	          0.00000000	          0.00000000	        -66.13857313	        330.69163241	         -6.79329310	         -0.44588398	          0.00000000	         -0.02850280	          0.00000000	          0.00000000	          0.00000000	          0.00000000	          0.51724200	          0.00000000	
